<svg xmlns="http://www.w3.org/2000/svg" version="1.1" xmlns:xlink="http://www.w3.org/1999/xlink" xmlns:svgjs="http://svgjs.com/svgjs" width="1440" height="560" preserveAspectRatio="none" viewBox="0 0 1440 560"><g mask="url(&quot;#SvgjsMask1014&quot;)" fill="none"><rect width="1440" height="560" x="0" y="0" fill="rgba(248, 255, 249, 1)"></rect><path d="M -178.69591195081105,224 C -137.5,255 -55.1,382.8 27.30408804918894,379 C 109.7,375.2 150.9,222.2 233.30408804918895,205 C 315.7,187.8 356.9,309.8 439.3040880491889,293 C 521.7,276.2 562.9,122 645.304088049189,121 C 727.7,120 768.9,293.2 851.304088049189,288 C 933.7,282.8 974.9,90.8 1057.304088049189,95 C 1139.7,99.2 1180.9,305.4 1263.304088049189,309 C 1345.7,312.6 1433.96,92.6 1469.304088049189,113 C 1504.64,133.4 1445.86,351.4 1440,411" stroke="rgba(39, 234, 66, 0.97)" stroke-width="2"></path><path d="M -395.5637361994958,157 C -354.36,188.4 -271.96,293 -189.56373619949576,314 C -107.16,335 -65.96,231.8 16.436263800504236,262 C 98.84,292.2 140.04,494.2 222.43626380050424,465 C 304.84,435.8 346.04,115.4 428.4362638005042,116 C 510.84,116.6 552.04,442.4 634.4362638005042,468 C 716.84,493.6 758.04,255.8 840.4362638005042,244 C 922.84,232.2 964.04,417 1046.4362638005043,409 C 1128.84,401 1173.72,223 1252.4362638005043,204 C 1331.15,185 1402.49,292 1440,314" stroke="rgba(39, 234, 66, 0.97)" stroke-width="2"></path><path d="M -400.73381187719383,401 C -359.53,362 -277.13,205.6 -194.73381187719383,206 C -112.33,206.4 -71.13,407.8 11.26618812280617,403 C 93.67,398.2 134.87,172.6 217.26618812280617,182 C 299.67,191.4 340.87,465.4 423.26618812280617,450 C 505.67,434.6 546.87,111.2 629.2661881228062,105 C 711.67,98.8 752.87,422 835.2661881228062,419 C 917.67,416 958.87,84.6 1041.2661881228062,90 C 1123.67,95.4 1167.52,431.8 1247.2661881228062,446 C 1327.01,460.2 1401.45,218 1440,161" stroke="rgba(39, 234, 66, 0.97)" stroke-width="2"></path><path d="M -72.48168846166806,310 C -31.28,283.4 51.12,167.6 133.51831153833194,177 C 215.92,186.4 257.12,364 339.51831153833194,357 C 421.92,350 463.12,157.2 545.518311538332,142 C 627.92,126.8 669.12,255 751.518311538332,281 C 833.92,307 875.12,271.6 957.518311538332,272 C 1039.92,272.4 1081.12,301.6 1163.518311538332,283 C 1245.92,264.4 1287.12,161 1369.518311538332,179 C 1451.92,197 1561.42,379.6 1575.518311538332,373 C 1589.61,366.4 1467.1,191.4 1440,146" stroke="rgba(39, 234, 66, 0.97)" stroke-width="2"></path></g><defs><mask id="SvgjsMask1014"><rect width="1440" height="560" fill="#ffffff"></rect></mask></defs></svg>